<svg width="215" height="45" viewBox="0 0 215 45" fill="none" xmlns="http://www.w3.org/2000/svg">
<path d="M54.5967 11.4308H59.6941V30.4414H68.6028V34.8936H54.5967V11.4308Z" fill="#2D3092"/>
<path d="M70.6086 25.9647C70.6086 20.1757 74.5851 16.5943 78.7149 16.5943C83.6118 16.5943 86.0307 20.2861 86.0307 25.1675C86.0307 26.1242 85.9127 27.0686 85.8183 27.5101H75.5409C76.001 30.098 77.7002 31.2877 80.0011 31.2877C81.2991 31.2877 82.4672 30.883 83.718 30.1225L85.4053 33.3114C83.6472 34.5747 81.3463 35.3229 79.3049 35.3229C74.4081 35.3229 70.6086 31.8764 70.6086 25.9647ZM81.6884 24.0146C81.6884 22.0522 80.8625 20.6418 78.8329 20.6418C77.2282 20.6418 75.8359 21.7579 75.4937 24.0146H81.6884Z" fill="#2D3092"/>
<path d="M88.3552 29.9387C88.3552 26.1734 91.2343 24.1374 98.0309 23.3892C97.9247 21.8316 97.1813 20.8136 95.317 20.8136C93.8774 20.8136 92.4379 21.4391 90.7741 22.4326L88.9688 18.9616C91.1517 17.5756 93.606 16.6067 96.3081 16.6067C100.698 16.6067 103.128 19.2191 103.128 24.6893V34.8937H98.9748L98.6091 33.0662H98.4793C97.0279 34.3909 95.4114 35.323 93.4762 35.323C90.3494 35.323 88.3552 32.9436 88.3552 29.9387ZM98.0309 29.7057V26.5904C94.4084 27.0932 93.2285 28.1725 93.2285 29.5217C93.2285 30.6746 93.9954 31.2388 95.199 31.2388C96.3553 31.2265 97.1341 30.6378 98.0309 29.7057Z" fill="#2D3092"/>
<path d="M107.4 17.0359H111.553L111.919 20.1512H112.049C113.3 17.7718 115.176 16.5943 116.934 16.5943C117.913 16.5943 118.491 16.7292 118.987 16.95L118.137 21.5126C117.524 21.3531 117.016 21.2305 116.285 21.2305C114.987 21.2305 113.418 22.1013 112.497 24.5297V34.8813H107.412V17.0359H107.4Z" fill="#2D3092"/>
<path d="M121.193 17.0359H125.347L125.713 19.2926H125.843C127.294 17.8454 129.017 16.5943 131.365 16.5943C135.105 16.5943 136.698 19.3294 136.698 23.7938V34.8813H131.613V24.4684C131.613 21.8928 130.952 21.0956 129.477 21.0956C128.202 21.0956 127.412 21.7088 126.291 22.8249V34.8691H121.205V17.0359H121.193Z" fill="#2D3092"/>
<path d="M141.418 11.4308H149.147C153.831 11.4308 157.465 12.7677 157.465 17.2444C157.465 19.354 156.333 21.5862 154.492 22.3098V22.457C156.793 23.0825 158.575 24.8486 158.575 27.9762C158.575 32.7473 154.692 34.8814 149.784 34.8814H141.418V11.4308ZM148.911 20.8257C151.389 20.8257 152.486 19.7342 152.486 18.0293C152.486 16.2264 151.33 15.515 148.946 15.515H146.527V20.8135H148.911V20.8257ZM149.371 30.7971C152.156 30.7971 153.595 29.7669 153.595 27.6328C153.595 25.5723 152.179 24.7383 149.371 24.7383H146.515V30.7971H149.371Z" fill="#2D3092"/>
<path d="M160.958 25.9647C160.958 20.0285 164.982 16.5943 169.324 16.5943C173.666 16.5943 177.69 20.0285 177.69 25.9647C177.69 31.8887 173.666 35.3229 169.324 35.3229C164.982 35.3229 160.958 31.8887 160.958 25.9647ZM172.474 25.9647C172.474 22.874 171.424 20.8625 169.324 20.8625C167.224 20.8625 166.173 22.874 166.173 25.9647C166.173 29.0555 167.224 31.0547 169.324 31.0547C171.424 31.0547 172.474 29.0555 172.474 25.9647Z" fill="#2D3092"/>
<path d="M179.483 17.0359H184.545L186.186 25.3025C186.492 27.0686 186.669 28.798 186.964 30.6132H187.106C187.413 28.8102 187.708 27.0073 188.121 25.3025L189.997 17.0359H194.422L196.357 25.3025C196.77 27.0686 197.077 28.798 197.431 30.6132H197.572C197.879 28.8102 198.056 27.0686 198.363 25.3025L199.991 17.0359H204.699L200.593 34.8937H194.634L193.053 27.7555C192.734 26.0997 192.451 24.4562 192.133 22.5306H191.991C191.684 24.4562 191.448 26.112 191.118 27.7677L189.607 34.8937H183.778L179.483 17.0359Z" fill="#2D3092"/>
<path d="M207.755 29.3376V9.67697H212.841V29.5584C212.841 30.6991 213.348 31.0547 213.761 31.0547C213.962 31.0547 214.091 31.0547 214.386 30.9811L214.988 34.8814C214.422 35.1267 213.596 35.3229 212.428 35.3229C208.947 35.3229 207.755 32.9558 207.755 29.3376Z" fill="#2D3092"/>
<path d="M24.3071 45H18.9973C8.50749 45 0 36.157 0 25.2657V19.7465C0 8.84301 8.50749 0 18.9855 0H24.2953C34.7851 0 43.2808 8.84301 43.2808 19.7343V25.2535C43.2926 36.157 34.7851 45 24.3071 45Z" fill="#2D3092"/>
<path d="M32.8854 24.7384C32.5196 23.9166 32.0122 23.2298 31.3633 22.6778C30.9267 22.3222 30.4311 22.0401 29.9001 21.8316C29.3573 21.6353 28.6022 21.4391 27.6228 21.2796C28.3308 21.0098 28.8853 20.7768 29.2629 20.556C29.6405 20.3352 29.9709 20.0654 30.2659 19.7343C31.0919 18.8389 31.5049 17.7106 31.5049 16.3246C31.5049 15.4661 31.3279 14.6934 30.9621 14.0065C30.5963 13.3197 30.0889 12.7678 29.4281 12.3385C28.6612 11.8602 27.7054 11.5781 26.5372 11.48C26.2186 11.4554 25.5579 11.4432 24.5313 11.4432H14.4899V11.8111C15.068 11.8479 15.54 11.9215 15.9058 12.0687C16.2716 12.2036 16.5902 12.4244 16.8734 12.731C17.2038 13.0744 17.4162 13.5037 17.5342 14.0188C17.6404 14.5339 17.6994 15.3434 17.6994 16.435V28.148C17.6994 29.2396 17.6404 30.0491 17.5342 30.5642C17.4398 31.018 17.251 31.4105 16.9796 31.7294C16.9914 31.7294 17.0032 31.7294 17.015 31.7294C17.6876 31.7048 18.2539 31.5944 18.7377 31.3982C19.3041 31.1774 19.7643 30.8218 20.1183 30.3434C20.3543 30.0245 20.5548 29.6566 20.7082 29.2396C20.72 29.2028 20.7436 29.1537 20.7554 29.1169C20.8498 28.8348 20.9442 28.5037 21.0386 28.1235V21.8684H23.7761C25.7349 21.8684 27.1626 22.2608 28.083 23.0458C28.5786 23.4751 28.9797 24.076 29.2747 24.861C29.5697 25.646 29.7231 26.5045 29.7231 27.4244C29.7231 29.5339 28.5314 30.9444 28.2954 31.2388C26.5726 33.3361 24.1183 33.4587 23.7171 33.4587C23.8823 33.4464 27.08 33.3238 29.1685 32.87C29.7467 32.7473 30.5491 32.5266 31.3161 31.9624C31.9768 31.4718 32.496 30.834 32.8618 30.0368C33.2394 29.2396 33.4164 28.3565 33.4164 27.3876C33.4282 26.4432 33.2512 25.5601 32.8854 24.7384ZM26.313 20.4702C26.0416 20.6664 25.7349 20.8258 25.4045 20.9485C25.0741 21.0711 24.6375 21.1693 24.0947 21.2551C23.4693 21.341 22.8676 21.3778 22.2894 21.3778H21.0504V11.9338H22.4664C23.5519 11.9338 24.3661 11.9951 24.9089 12.13C25.4399 12.2527 25.9237 12.498 26.3366 12.8414C26.8204 13.2461 27.198 13.8103 27.493 14.5339C27.788 15.2576 27.9296 16.0303 27.9296 16.8275C27.9296 17.5879 27.788 18.287 27.5048 18.9125C27.2334 19.5503 26.8322 20.0654 26.313 20.4702Z" fill="white"/>
<path d="M22.3602 29.1414L22.254 32.5879L22.2186 33.5568H9.86446V33.2992C10.5606 33.2992 11.1034 33.0907 11.481 32.686C11.6934 32.4529 11.8468 32.1586 11.9176 31.8029C12.0002 31.4472 12.0356 30.9076 12.0356 30.1717V22.2363C12.0356 21.4758 11.9884 20.9116 11.9058 20.556C11.8232 20.188 11.658 19.8937 11.422 19.6729C11.2332 19.4889 11.009 19.354 10.773 19.2681C10.537 19.1823 10.2302 19.1332 9.85266 19.121V18.8757H16.4722V19.121C16.0946 19.1455 15.776 19.1946 15.5401 19.2804C15.3041 19.3663 15.0799 19.5012 14.9029 19.6852C14.6669 19.9182 14.5135 20.2248 14.4309 20.5805C14.3483 20.9362 14.3011 21.5004 14.3011 22.2485V28.4668C14.3011 29.4235 14.3247 30.1349 14.3719 30.6009C14.4191 31.067 14.5135 31.4472 14.6551 31.7416C14.8911 32.2567 15.2569 32.6369 15.7288 32.8822C16.2008 33.1275 16.838 33.2379 17.6286 33.2379C17.7348 33.2379 17.841 33.2379 17.9472 33.2379C17.959 33.2379 17.9708 33.2379 17.9826 33.2379C18.6551 33.2134 19.2215 33.103 19.7053 32.9067C20.2717 32.686 20.7319 32.3303 21.0859 31.852C21.3218 31.5331 21.5224 31.1651 21.6758 30.7481C21.6876 30.7113 21.7112 30.6623 21.723 30.6255C21.8174 30.3434 21.9118 30.0122 22.0062 29.632C22.0416 29.4726 22.077 29.3131 22.1124 29.1291L22.3602 29.1414Z" fill="white"/>
</svg>
