<svg width="42" height="41" viewBox="0 0 42 41" fill="none" xmlns="http://www.w3.org/2000/svg">
<path d="M23.1766 41H18.1137C8.11179 41 0 32.943 0 23.0199V17.9913C0 8.05696 8.1118 0 18.1025 0H23.1653C33.1672 0 41.2678 8.05696 41.2678 17.9801V23.0087C41.279 32.943 33.1672 41 23.1766 41Z" fill="white"/>
<path d="M31.3559 22.5394C31.0071 21.7907 30.5233 21.1649 29.9046 20.6621C29.4883 20.338 29.0157 20.081 28.5095 19.891C27.9919 19.7122 27.2719 19.5334 26.3381 19.3881C27.0131 19.1423 27.5419 18.93 27.9019 18.7288C28.2619 18.5277 28.577 18.2818 28.8582 17.9801C29.6458 17.1644 30.0396 16.1363 30.0396 14.8736C30.0396 14.0913 29.8708 13.3873 29.522 12.7615C29.1733 12.1358 28.6895 11.6329 28.0594 11.2418C27.3281 10.806 26.4168 10.5489 25.303 10.4595C24.9992 10.4372 24.3692 10.426 23.3904 10.426H13.816V10.7613C14.3673 10.7948 14.8173 10.8618 15.1661 10.9959C15.5148 11.1189 15.8186 11.32 16.0886 11.5994C16.4037 11.9123 16.6062 12.3034 16.7187 12.7727C16.8199 13.2421 16.8762 13.9796 16.8762 14.9741V25.646C16.8762 26.6405 16.8199 27.3781 16.7187 27.8474C16.6287 28.2609 16.4487 28.6184 16.1899 28.909C16.2011 28.909 16.2124 28.909 16.2236 28.909C16.8649 28.8866 17.405 28.7861 17.8663 28.6073C18.4063 28.4061 18.8451 28.0821 19.1826 27.6462C19.4076 27.3557 19.5989 27.0205 19.7451 26.6405C19.7564 26.607 19.7789 26.5623 19.7901 26.5288C19.8801 26.2718 19.9701 25.97 20.0601 25.6236V19.9245H22.6703C24.5379 19.9245 25.8993 20.2821 26.7768 20.9973C27.2494 21.3884 27.6319 21.936 27.9132 22.6512C28.1944 23.3663 28.3407 24.1486 28.3407 24.9867C28.3407 26.9087 27.2044 28.1938 26.9794 28.462C25.3368 30.3729 22.9966 30.4846 22.6141 30.4846C22.7716 30.4734 25.8205 30.3617 27.8119 29.9482C28.3632 29.8365 29.1283 29.6353 29.8596 29.1213C30.4896 28.6743 30.9846 28.0932 31.3334 27.3669C31.6934 26.6405 31.8622 25.8359 31.8622 24.9531C31.8734 24.0927 31.7047 23.2881 31.3559 22.5394ZM25.0892 18.6506C24.8305 18.8294 24.5379 18.9747 24.2229 19.0864C23.9079 19.1982 23.4916 19.2876 22.9741 19.3658C22.3778 19.444 21.804 19.4775 21.2527 19.4775H20.0714V10.873H21.4215C22.4566 10.873 23.2329 10.9289 23.7504 11.0518C24.2567 11.1636 24.718 11.3871 25.1117 11.6999C25.573 12.0687 25.933 12.5827 26.2143 13.2421C26.4956 13.9014 26.6306 14.6054 26.6306 15.3317C26.6306 16.0246 26.4956 16.6615 26.2256 17.2314C25.9668 17.8125 25.5843 18.2818 25.0892 18.6506Z" fill="#2D3092"/>
<path d="M21.3202 26.5511L21.219 29.6912L21.1852 30.574H9.40566V30.3393C10.0695 30.3393 10.587 30.1493 10.947 29.7806C11.1495 29.5682 11.2958 29.3001 11.3633 28.976C11.442 28.6519 11.4758 28.1602 11.4758 27.4897V20.2597C11.4758 19.5669 11.4308 19.0528 11.352 18.7288C11.2733 18.3935 11.1158 18.1253 10.8908 17.9242C10.7107 17.7566 10.497 17.6337 10.272 17.5554C10.047 17.4772 9.75443 17.4325 9.39441 17.4213V17.1978H15.7061V17.4213C15.3461 17.4437 15.0423 17.4884 14.8173 17.5666C14.5923 17.6448 14.3785 17.7678 14.2097 17.9354C13.9847 18.1477 13.8385 18.4271 13.7597 18.7511C13.6809 19.0752 13.6359 19.5892 13.6359 20.2709V25.9365C13.6359 26.8081 13.6584 27.4562 13.7034 27.8809C13.7485 28.3055 13.8385 28.6519 13.9735 28.9201C14.1985 29.3894 14.5473 29.7359 14.9973 29.9594C15.4473 30.1829 16.0549 30.2834 16.8087 30.2834C16.9099 30.2834 17.0112 30.2834 17.1124 30.2834C17.1237 30.2834 17.1349 30.2834 17.1462 30.2834C17.7875 30.2611 18.3275 30.1605 18.7888 29.9817C19.3288 29.7806 19.7676 29.4565 20.1051 29.0207C20.3301 28.7301 20.5214 28.3949 20.6677 28.015C20.6789 27.9814 20.7014 27.9367 20.7127 27.9032C20.8027 27.6462 20.8927 27.3445 20.9827 26.9981C21.0164 26.8528 21.0502 26.7075 21.0839 26.5399L21.3202 26.5511Z" fill="#2D3092"/>
</svg>
