<svg width="44" height="45" viewBox="0 0 44 45" fill="none" xmlns="http://www.w3.org/2000/svg">
<path d="M24.3071 45H18.9973C8.50749 45 0 36.157 0 25.2657V19.7465C0 8.84301 8.50749 0 18.9855 0H24.2953C34.7851 0 43.2808 8.84301 43.2808 19.7343V25.2535C43.2926 36.157 34.7851 45 24.3071 45Z" fill="#2D3092"/>
<path d="M32.8854 24.7384C32.5196 23.9166 32.0122 23.2298 31.3633 22.6778C30.9267 22.3222 30.4311 22.0401 29.9001 21.8316C29.3573 21.6353 28.6022 21.4391 27.6228 21.2796C28.3308 21.0098 28.8853 20.7768 29.2629 20.556C29.6405 20.3352 29.9709 20.0654 30.2659 19.7343C31.0919 18.8389 31.5049 17.7106 31.5049 16.3246C31.5049 15.4661 31.3279 14.6934 30.9621 14.0065C30.5963 13.3197 30.0889 12.7678 29.4281 12.3385C28.6612 11.8602 27.7054 11.5781 26.5372 11.48C26.2186 11.4554 25.5579 11.4432 24.5313 11.4432H14.4899V11.8111C15.068 11.8479 15.54 11.9215 15.9058 12.0687C16.2716 12.2036 16.5902 12.4244 16.8734 12.731C17.2038 13.0744 17.4162 13.5037 17.5342 14.0188C17.6404 14.5339 17.6994 15.3434 17.6994 16.435V28.148C17.6994 29.2396 17.6404 30.0491 17.5342 30.5642C17.4398 31.018 17.251 31.4105 16.9796 31.7294C16.9914 31.7294 17.0032 31.7294 17.015 31.7294C17.6876 31.7048 18.2539 31.5944 18.7377 31.3982C19.3041 31.1774 19.7643 30.8218 20.1183 30.3434C20.3543 30.0245 20.5548 29.6566 20.7082 29.2396C20.72 29.2028 20.7436 29.1537 20.7554 29.1169C20.8498 28.8348 20.9442 28.5037 21.0386 28.1235V21.8684H23.7761C25.7349 21.8684 27.1626 22.2608 28.083 23.0458C28.5786 23.4751 28.9797 24.076 29.2747 24.861C29.5697 25.646 29.7231 26.5045 29.7231 27.4244C29.7231 29.5339 28.5314 30.9444 28.2954 31.2388C26.5726 33.3361 24.1183 33.4587 23.7171 33.4587C23.8823 33.4464 27.08 33.3238 29.1685 32.87C29.7467 32.7473 30.5491 32.5266 31.3161 31.9624C31.9768 31.4718 32.496 30.834 32.8618 30.0368C33.2394 29.2396 33.4164 28.3565 33.4164 27.3876C33.4282 26.4432 33.2512 25.5601 32.8854 24.7384ZM26.313 20.4702C26.0416 20.6664 25.7349 20.8258 25.4045 20.9485C25.0741 21.0711 24.6375 21.1693 24.0947 21.2551C23.4693 21.341 22.8676 21.3778 22.2894 21.3778H21.0504V11.9338H22.4664C23.5519 11.9338 24.3661 11.9951 24.9089 12.13C25.4399 12.2527 25.9237 12.498 26.3366 12.8414C26.8204 13.2461 27.198 13.8103 27.493 14.5339C27.788 15.2576 27.9296 16.0303 27.9296 16.8275C27.9296 17.5879 27.788 18.287 27.5048 18.9125C27.2334 19.5503 26.8322 20.0654 26.313 20.4702Z" fill="white"/>
<path d="M22.3602 29.1414L22.254 32.5879L22.2186 33.5568H9.86446V33.2992C10.5606 33.2992 11.1034 33.0907 11.481 32.686C11.6934 32.4529 11.8468 32.1586 11.9176 31.8029C12.0002 31.4472 12.0356 30.9076 12.0356 30.1717V22.2363C12.0356 21.4758 11.9884 20.9116 11.9058 20.556C11.8232 20.188 11.658 19.8937 11.422 19.6729C11.2332 19.4889 11.009 19.354 10.773 19.2681C10.537 19.1823 10.2302 19.1332 9.85266 19.121V18.8757H16.4722V19.121C16.0946 19.1455 15.776 19.1946 15.5401 19.2804C15.3041 19.3663 15.0799 19.5012 14.9029 19.6852C14.6669 19.9182 14.5135 20.2248 14.4309 20.5805C14.3483 20.9362 14.3011 21.5004 14.3011 22.2485V28.4668C14.3011 29.4235 14.3247 30.1349 14.3719 30.6009C14.4191 31.067 14.5135 31.4472 14.6551 31.7416C14.8911 32.2567 15.2569 32.6369 15.7288 32.8822C16.2008 33.1275 16.838 33.2379 17.6286 33.2379C17.7348 33.2379 17.841 33.2379 17.9472 33.2379C17.959 33.2379 17.9708 33.2379 17.9826 33.2379C18.6551 33.2134 19.2215 33.103 19.7053 32.9067C20.2717 32.686 20.7319 32.3303 21.0859 31.852C21.3218 31.5331 21.5224 31.1651 21.6758 30.7481C21.6876 30.7113 21.7112 30.6623 21.723 30.6255C21.8174 30.3434 21.9118 30.0122 22.0062 29.632C22.0416 29.4726 22.077 29.3131 22.1124 29.1291L22.3602 29.1414Z" fill="white"/>
</svg>
