<svg width="184" height="337" viewBox="0 0 184 337" fill="none" xmlns="http://www.w3.org/2000/svg">
<path d="M48.9763 223.385C48.9763 223.385 26.2031 236.435 14.9506 259.525C0.668882 288.824 -3.10509 333.7 2.45174 336.555C8.0054 339.414 14.7235 317.83 25.9286 305.175C44.4577 284.242 60.4402 285.496 60.4402 285.496L48.9763 223.385Z" fill="#00ACA2"/>
<path d="M135.026 223.385C135.026 223.385 157.796 236.435 169.052 259.525C183.334 288.824 187.105 333.7 181.551 336.555C175.994 339.414 169.279 317.83 158.074 305.175C139.542 284.242 123.562 285.496 123.562 285.496L135.026 223.385Z" fill="#02857D"/>
<path d="M125.399 321.888C127.949 313.977 145.092 258.199 145.092 188.909C145.092 131.618 112.032 99.1099 92.0169 83.0438C72.0016 99.1068 38.9415 131.618 38.9415 188.909C38.9415 258.199 56.0853 313.974 58.6381 321.888H125.399Z" fill="#2B2B38"/>
<path d="M24.8208 157.488C24.8208 245.205 46.5274 297.289 49.7555 307.31H134.275C137.51 297.289 159.213 245.205 159.213 157.488C159.213 118.827 147.32 82.4216 132.376 53.7634H51.6551C36.7107 82.4184 24.8208 118.827 24.8208 157.488Z" fill="white"/>
<path d="M92.0178 0C80.1847 9.49694 64.748 28.6551 51.6591 53.7634H132.38C119.284 28.6551 103.851 9.49694 92.0178 0Z" fill="#00ACA2"/>
<path d="M132.376 53.7634H92.0175V307.31H134.276C137.51 297.289 159.214 245.205 159.214 157.488C159.214 118.827 147.321 82.4184 132.376 53.7634Z" fill="#F0F1F1"/>
<path d="M92.011 91.7353C76.0253 91.7353 63.0625 104.71 63.0625 120.709C63.0625 136.706 76.0253 149.68 92.011 149.68C108 149.68 120.959 136.706 120.959 120.709C120.963 104.71 108 91.7353 92.011 91.7353Z" fill="#A5DCF0"/>
<path d="M121.877 137.808C131.221 121.303 125.433 100.338 108.94 90.9804C92.4459 81.6256 71.4998 87.4211 62.1532 103.929C52.8035 120.441 58.6001 141.399 75.0907 150.76C91.5845 160.112 112.531 154.317 121.877 137.808ZM115.279 134.066C107.999 146.923 91.6823 151.449 78.83 144.156C65.9808 136.87 61.4684 120.529 68.7545 107.672C76.0342 94.8083 92.3544 90.2951 105.204 97.5844C118.053 104.871 122.565 121.208 115.279 134.066Z" fill="#2B2B38"/>
<path opacity="0.3" d="M117.437 135.291C125.395 121.234 120.463 103.389 106.425 95.421C92.3858 87.4558 74.5478 92.3922 66.5896 106.443C58.6346 120.498 63.5635 138.345 77.6055 146.31C91.6474 154.275 109.479 149.345 117.437 135.291Z" fill="#E6E6E7"/>
<path opacity="0.5" d="M69.487 128.99C66.2905 119.386 69.4933 108.414 78.1236 102.161C86.7539 95.9105 98.1642 96.2895 106.283 102.341C106.283 102.341 92.4559 107.937 85.2014 113.193C77.726 118.609 69.487 128.99 69.487 128.99Z" fill="white"/>
<path d="M92.2005 233.731H92.1784H92.1563C86.4544 233.731 82.6552 242.575 82.6552 254.431C82.6552 266.29 83.9205 336.811 92.1563 336.811C92.1626 336.811 92.169 336.811 92.1784 336.811C92.1847 336.811 92.1911 336.811 92.2005 336.811C100.43 336.811 101.699 266.29 101.699 254.431C101.699 242.575 97.9025 233.731 92.2005 233.731Z" fill="#00ACA2"/>
<path d="M92.0109 53.7634H132.376C119.284 28.6551 103.85 9.49694 92.0172 0C92.0172 0.00315828 92.014 0.00315828 92.014 0.00315828V53.7634H92.0109Z" fill="#02857D"/>
<path d="M92.2007 233.731H92.1786V336.811C92.1849 336.811 92.1912 336.811 92.2007 336.811C100.43 336.811 101.699 266.29 101.699 254.431C101.699 242.575 97.9027 233.731 92.2007 233.731Z" fill="#02857D"/>
</svg>
