<svg width="720" height="440" viewBox="0 0 720 440" fill="none" xmlns="http://www.w3.org/2000/svg">
<g clip-path="url(#clip0_2328:2744)">
<g filter="url(#filter0_f_2328:2744)">
<path d="M781.884 146.277C770.455 124.135 742.284 117.421 719.37 123.784C696.455 130.148 677.284 146.445 658.198 161.431C639.113 176.416 618.198 190.943 594.556 192.774C567.313 194.88 541.241 179.758 513.941 179.117C479.156 178.323 445.927 201.061 411.398 196.406C360.956 189.6 331.213 128.912 282.684 112.706C237.198 97.4458 189.656 125.081 149.956 153.221C110.256 181.36 66.2984 212.582 19.1698 205.104C-16.5445 199.443 -47.8873 169.366 -56.9302 131.994V475.8H770.341L781.884 146.277Z" fill="#523004"/>
</g>
<path d="M781.884 133.277C770.455 111.135 742.284 104.421 719.37 110.784C696.455 117.148 677.284 133.445 658.198 148.431C639.113 163.416 618.198 177.943 594.556 179.774C567.313 181.88 541.241 166.758 513.941 166.117C479.156 165.323 445.927 188.061 411.398 183.406C360.956 176.6 331.213 115.912 282.684 99.7057C237.198 84.4458 189.656 112.081 149.956 140.221C110.256 168.36 66.2984 199.582 19.1698 192.104C-16.5445 186.443 -47.8873 156.366 -56.9302 118.994V462.8H770.341L781.884 133.277Z" fill="#D98B22"/>
<g style="mix-blend-mode:color-burn">
<rect x="-87.4438" y="158.572" width="895.543" height="360.012"/>
</g>
<path d="M-66.1157 257.779C-53.4872 219.125 -13.1443 193.244 24.7271 199.501C52.37 204.079 75.9843 223.062 102.77 231.547C153.556 247.753 207.056 224.893 256.913 205.605C306.77 186.316 364.813 170.919 410.47 199.669C436.97 216.348 458.241 247.28 489.041 248.409C509.513 249.157 528.384 235.881 548.827 234.583C574.384 232.951 597.199 249.843 620.799 260.525C674.627 284.697 740.541 274.732 785.984 235.575V497.527H-52.3586L-66.1157 257.779Z" fill="#CD5555"/>
<g style="mix-blend-mode:color-burn">
<rect x="-77.8423" y="228.638" width="859.543" height="276.876"/>
</g>
<path d="M747.569 312.72C709.035 289.268 663.684 282.055 620.426 292.501C588.355 300.406 557.569 318.031 524.712 315.803C493.755 313.697 466.583 294.439 439.726 277.76C412.869 261.081 381.826 246.355 351.726 254.336C319.412 262.912 297.197 295.416 266.012 307.883C233.312 320.961 196.583 309.882 164.683 294.729C132.783 279.576 101.569 260.058 66.8832 255.801C18.869 249.697 -31.3453 276.661 -55.5024 321.419V482.746H758.94L747.569 312.72Z" fill="#1F2170"/>
<g style="mix-blend-mode:color-burn">
<rect x="-69.272" y="305.294" width="840" height="267.72"/>
</g>
<path d="M-47.645 377.351C-19.4593 395.266 16.555 391.986 47.6121 380.724C78.6693 369.462 107.141 351.013 137.955 339.217C168.769 327.421 204.526 322.873 233.498 339.324C260.341 354.584 278.783 386.263 308.455 393.374C332.098 399.036 356.241 387.27 376.684 373.353C397.126 359.436 416.884 342.833 440.541 337.264C468.241 330.717 496.998 340.315 523.012 352.523C549.026 364.731 574.526 379.457 602.569 384.02C628.669 388.247 655.298 383.303 681.641 384.935C707.983 386.568 736.569 397.143 748.783 422.154V550.338H-45.5022L-47.645 377.351Z" fill="#649BC5"/>
</g>
<defs>
<filter id="filter0_f_2328:2744" x="-86.9302" y="78.3572" width="898.814" height="427.443" filterUnits="userSpaceOnUse" color-interpolation-filters="sRGB">
<feFlood flood-opacity="0" result="BackgroundImageFix"/>
<feBlend mode="normal" in="SourceGraphic" in2="BackgroundImageFix" result="shape"/>
<feGaussianBlur stdDeviation="15" result="effect1_foregroundBlur_2328:2744"/>
</filter>
<clipPath id="clip0_2328:2744">
<path d="M0 0.514893H720V410C720 426.569 706.569 440 690 440H0V0.514893Z" fill="white"/>
</clipPath>
</defs>
</svg>
